<svg width="40" height="40" viewBox="0 0 40 40" fill="none" xmlns="http://www.w3.org/2000/svg">
<path d="M7.00765 7.37119L7.17604 7.17613C7.79347 6.5587 8.75964 6.50257 9.44048 7.00774L9.63554 7.17613L20 17.5398L30.3644 7.17613C31.0436 6.49695 32.1448 6.49695 32.8239 7.17613C33.5031 7.8553 33.5031 8.95646 32.8239 9.63563L22.4603 20.0001L32.8239 30.3645C33.4414 30.982 33.4975 31.9481 32.9923 32.629L32.8239 32.824C32.2065 33.4415 31.2403 33.4976 30.5595 32.9924L30.3644 32.824L20 22.4604L9.63554 32.824C8.95637 33.5032 7.85521 33.5032 7.17604 32.824C6.49686 32.1449 6.49686 31.0437 7.17604 30.3645L17.5397 20.0001L7.17604 9.63563C6.55861 9.0182 6.50248 8.05202 7.00765 7.37119L7.17604 7.17613L7.00765 7.37119Z" fill="white"/>
</svg>
